<svg xmlns="http://www.w3.org/2000/svg" width="33" height="32" fill="none"><g filter="url(#a)"><path fill="#fff" d="M14.93 0c-1.942 0-3.451 1.306-5.299 2.63-1.768 1.266-3.857 2.638-6.876 3.353l-.211-.49c.185-.24.3-.53.3-.858 0-.788-.637-1.426-1.422-1.426C.637 3.209 0 3.847 0 4.635c0 .727.543 1.316 1.244 1.404L12.142 32l1.31-.546-4.91-11.688c2.496-.762 4.31-1.952 5.866-2.897 1.668-1.013 2.99-1.707 4.721-1.549.317.03.4.113.534.368.323.811.261 1.655.333 2.474.082.77.487 1.235 1.3 1.014 3.453-1.732 6.873-2.418 10.697-2.418a.728.728 0 0 0 .652-.407.732.732 0 0 0-.096-.763c-2.81-3.456-7.042-8.312-5.244-12.446.163-.362-.046-.843-.422-.97-2.288-.764-4.768-.071-7.176.925C18.325 1.627 16.747.032 14.93 0ZM3.921 8.758c1.925 1.954 2.727 4.215 2.8 6.663l-2.8-6.663Z"/></g><defs><filter id="a" width="204.711" height="204" x="-86" y="-86" color-interpolation-filters="sRGB" filterUnits="userSpaceOnUse"><feFlood flood-opacity="0" result="BackgroundImageFix"/><feGaussianBlur in="BackgroundImageFix" stdDeviation="43"/><feComposite in2="SourceAlpha" operator="in" result="effect1_backgroundBlur_43_7690"/><feBlend in="SourceGraphic" in2="effect1_backgroundBlur_43_7690" result="shape"/><feColorMatrix in="SourceAlpha" result="hardAlpha" values="0 0 0 0 0 0 0 0 0 0 0 0 0 0 0 0 0 0 127 0"/><feOffset dy="4"/><feGaussianBlur stdDeviation="5"/><feComposite in2="hardAlpha" k2="-1" k3="1" operator="arithmetic"/><feColorMatrix values="0 0 0 0 0 0 0 0 0 0 0 0 0 0 0 0 0 0 0.2 0"/><feBlend in2="shape" result="effect2_innerShadow_43_7690"/></filter></defs></svg>